<svg width="226" height="48" viewBox="0 0 226 48" fill="none" xmlns="http://www.w3.org/2000/svg">
<path d="M11.8 0H226L214.2 47.25H0L11.8 0Z" fill="#C31924"/>
<path d="M46.3789 21.2217H48.2759V22.2837C48.9546 21.4585 49.7627 21.0459 50.7002 21.0459C51.1982 21.0459 51.6304 21.1484 51.9966 21.3535C52.3628 21.5586 52.6631 21.8687 52.8975 22.2837C53.2393 21.8687 53.6079 21.5586 54.0034 21.3535C54.3989 21.1484 54.8213 21.0459 55.2705 21.0459C55.8418 21.0459 56.3252 21.1631 56.7207 21.3975C57.1162 21.627 57.4116 21.9663 57.6069 22.4155C57.7485 22.7476 57.8193 23.2847 57.8193 24.0269V29H55.7612V24.5542C55.7612 23.7827 55.6904 23.2847 55.5488 23.0601C55.3584 22.7671 55.0654 22.6206 54.6699 22.6206C54.3818 22.6206 54.1108 22.7085 53.8569 22.8843C53.603 23.0601 53.4199 23.3188 53.3076 23.6606C53.1953 23.9976 53.1392 24.5322 53.1392 25.2646V29H51.0811V24.7373C51.0811 23.9805 51.0444 23.4922 50.9712 23.2725C50.8979 23.0527 50.7832 22.8892 50.627 22.7817C50.4756 22.6743 50.2681 22.6206 50.0044 22.6206C49.687 22.6206 49.4014 22.7061 49.1475 22.877C48.8936 23.0479 48.7104 23.2944 48.5981 23.6167C48.4907 23.939 48.437 24.4736 48.437 25.2207V29H46.3789V21.2217ZM58.9033 21.2217H61.0933L62.9536 26.7441L64.77 21.2217H66.9014L64.1548 28.707L63.6641 30.062C63.4834 30.5161 63.3101 30.8628 63.144 31.1021C62.9829 31.3413 62.7949 31.5342 62.5801 31.6807C62.3701 31.832 62.1089 31.9492 61.7964 32.0322C61.4888 32.1152 61.1396 32.1567 60.749 32.1567C60.3535 32.1567 59.9653 32.1152 59.5845 32.0322L59.4014 30.4209C59.7236 30.4844 60.0142 30.5161 60.2729 30.5161C60.7515 30.5161 61.1055 30.3745 61.335 30.0913C61.5645 29.813 61.7402 29.4565 61.8623 29.022L58.9033 21.2217ZM73.2368 25.0522V23.2432H77.9097V27.5205C77.4556 27.96 76.7964 28.3481 75.9321 28.6851C75.0728 29.0171 74.2012 29.1831 73.3174 29.1831C72.1943 29.1831 71.2153 28.9487 70.3804 28.48C69.5454 28.0063 68.918 27.3325 68.498 26.4585C68.0781 25.5796 67.8682 24.625 67.8682 23.5947C67.8682 22.4766 68.1025 21.4829 68.5713 20.6138C69.04 19.7446 69.7261 19.0781 70.6294 18.6143C71.3179 18.2578 72.1748 18.0796 73.2002 18.0796C74.5332 18.0796 75.5732 18.3604 76.3203 18.9219C77.0723 19.4785 77.5557 20.25 77.7705 21.2363L75.6172 21.6392C75.4658 21.1118 75.1802 20.6968 74.7603 20.394C74.3452 20.0864 73.8252 19.9326 73.2002 19.9326C72.2529 19.9326 71.4985 20.2329 70.937 20.8335C70.3804 21.4341 70.1021 22.3252 70.1021 23.5068C70.1021 24.7812 70.3853 25.7383 70.9517 26.3779C71.5181 27.0127 72.2603 27.3301 73.1782 27.3301C73.6323 27.3301 74.0864 27.2422 74.5405 27.0664C74.9995 26.8857 75.3926 26.6685 75.7197 26.4146V25.0522H73.2368ZM79.9238 29V18.2627H84.4868C85.6343 18.2627 86.4668 18.3604 86.9844 18.5557C87.5068 18.7461 87.9243 19.0879 88.2368 19.5811C88.5493 20.0742 88.7056 20.6382 88.7056 21.2729C88.7056 22.0786 88.4688 22.7451 87.9951 23.2725C87.5215 23.7949 86.8135 24.1245 85.8711 24.2612C86.3398 24.5347 86.7256 24.835 87.0283 25.1621C87.3359 25.4893 87.7485 26.0703 88.2661 26.9053L89.5771 29H86.9844L85.417 26.6636C84.8604 25.8286 84.4795 25.3037 84.2744 25.0889C84.0693 24.8691 83.8521 24.7202 83.6226 24.6421C83.3931 24.5591 83.0293 24.5176 82.5312 24.5176H82.0918V29H79.9238ZM82.0918 22.8037H83.6958C84.7358 22.8037 85.3853 22.7598 85.644 22.6719C85.9028 22.584 86.1055 22.4326 86.252 22.2178C86.3984 22.0029 86.4717 21.7344 86.4717 21.4121C86.4717 21.0508 86.374 20.7603 86.1787 20.5405C85.9883 20.3159 85.7173 20.1743 85.3657 20.1157C85.1899 20.0913 84.6626 20.0791 83.7837 20.0791H82.0918V22.8037ZM90.6904 29V18.2627H92.8584V29H90.6904ZM94.9019 29V18.2627H98.1465L100.095 25.5869L102.021 18.2627H105.273V29H103.259V20.5479L101.127 29H99.04L96.916 20.5479V29H94.9019ZM107.397 29V18.2627H110.642L112.59 25.5869L114.516 18.2627H117.768V29H115.754V20.5479L113.623 29H111.535L109.411 20.5479V29H107.397ZM119.921 29V18.2627H127.883V20.0791H122.089V22.4595H127.48V24.2686H122.089V27.1909H128.088V29H119.921ZM134.16 29V18.3506H136.328V27.1909H141.718V29H134.16ZM142.832 23.6973C142.832 22.6035 142.995 21.6855 143.322 20.9434C143.566 20.3965 143.898 19.9058 144.318 19.4712C144.743 19.0366 145.207 18.7144 145.71 18.5044C146.379 18.2212 147.15 18.0796 148.024 18.0796C149.606 18.0796 150.871 18.5703 151.818 19.5518C152.771 20.5332 153.247 21.8979 153.247 23.646C153.247 25.3794 152.775 26.7368 151.833 27.7183C150.891 28.6948 149.631 29.1831 148.054 29.1831C146.457 29.1831 145.188 28.6973 144.245 27.7256C143.303 26.749 142.832 25.4062 142.832 23.6973ZM145.065 23.624C145.065 24.8398 145.346 25.7627 145.908 26.3926C146.469 27.0176 147.182 27.3301 148.046 27.3301C148.911 27.3301 149.619 27.02 150.17 26.3999C150.727 25.7749 151.005 24.8398 151.005 23.5947C151.005 22.3643 150.734 21.4463 150.192 20.8408C149.655 20.2354 148.94 19.9326 148.046 19.9326C147.153 19.9326 146.433 20.2402 145.886 20.8555C145.339 21.4658 145.065 22.3887 145.065 23.624ZM159.941 25.0522V23.2432H164.614V27.5205C164.16 27.96 163.5 28.3481 162.636 28.6851C161.777 29.0171 160.905 29.1831 160.021 29.1831C158.898 29.1831 157.919 28.9487 157.084 28.48C156.25 28.0063 155.622 27.3325 155.202 26.4585C154.782 25.5796 154.572 24.625 154.572 23.5947C154.572 22.4766 154.807 21.4829 155.275 20.6138C155.744 19.7446 156.43 19.0781 157.333 18.6143C158.022 18.2578 158.879 18.0796 159.904 18.0796C161.237 18.0796 162.277 18.3604 163.024 18.9219C163.776 19.4785 164.26 20.25 164.475 21.2363L162.321 21.6392C162.17 21.1118 161.884 20.6968 161.464 20.394C161.049 20.0864 160.529 19.9326 159.904 19.9326C158.957 19.9326 158.203 20.2329 157.641 20.8335C157.084 21.4341 156.806 22.3252 156.806 23.5068C156.806 24.7812 157.089 25.7383 157.656 26.3779C158.222 27.0127 158.964 27.3301 159.882 27.3301C160.336 27.3301 160.791 27.2422 161.245 27.0664C161.704 26.8857 162.097 26.6685 162.424 26.4146V25.0522H159.941ZM166.555 29V18.2627H168.723V29H166.555ZM170.817 29V18.2627H172.927L177.321 25.4331V18.2627H179.335V29H177.16L172.832 21.998V29H170.817Z" fill="white"/>
</svg>
